<svg preserveAspectRatio="none" width="100%" height="100%" overflow="visible" style="display: block;" viewBox="0 0 284 178.654" fill="none" xmlns="http://www.w3.org/2000/svg">
<g id="Doodles">
<path id="Vector" fill-rule="evenodd" clip-rule="evenodd" d="M49.3144 30.5997C49.2956 29.1736 49.1167 27.7353 48.7589 26.2871C47.5042 21.2051 41.9064 17.9424 35.9484 17.1753C29.9927 16.4082 23.7993 18.1538 21.4123 22.5745C20.047 25.102 19.8587 27.2804 20.4166 29.1171C20.9721 30.9439 22.2903 32.4584 24.0793 33.6385C29.0675 36.9258 37.8034 37.597 41.7887 36.2226C43.6319 35.5858 45.4327 34.8188 47.1864 33.941C46.1836 39.6869 42.4477 45.1304 37.4619 50.0355C26.6264 60.6963 9.81169 68.7877 0.654562 71.7627C0.162573 71.9225 -0.110516 72.4684 0.0424948 72.9822C0.195506 73.4961 0.718088 73.7838 1.21008 73.624C10.5485 70.59 27.6905 62.3264 38.7402 51.4541C44.4487 45.8385 48.5164 39.5173 49.2109 32.8715C62.1156 25.67 72.7134 12.6046 81.774 1.60946C82.1106 1.20378 82.0659 0.586634 81.6751 0.235044C81.2844 -0.114088 80.6958 -0.0698511 80.3592 0.338289C71.6681 10.8835 61.5812 23.4277 49.3144 30.5997ZM47.4383 31.6446C47.509 30.0415 47.3582 28.4139 46.951 26.7715C45.8658 22.3729 40.8776 19.7717 35.72 19.1078C32.5585 18.7021 29.3077 19.0365 26.7583 20.2265C25.1552 20.974 23.8345 22.0582 23.0389 23.5334C21.9937 25.4684 21.7677 27.1231 22.1961 28.527C22.6245 29.9407 23.6887 31.0766 25.0752 31.9888C29.6208 34.9859 37.575 35.6227 41.2025 34.3713C43.3423 33.6337 45.4186 32.7141 47.4383 31.6446Z" fill="var(--fill-0, #011625)"/>
<circle id="Ellipse 67" cx="278" cy="123.428" r="6" fill="var(--fill-0, #417BA4)"/>
<path id="Vector_2" fill-rule="evenodd" clip-rule="evenodd" d="M51.3844 164.822C52.4552 164.421 53.582 163.887 54.4509 163.114C55.4829 162.197 55.9026 161.015 56.1845 159.771C56.5463 158.172 56.6909 156.47 57.1297 154.869C57.2921 154.274 57.6048 154.049 57.7389 153.95C58.078 153.698 58.4207 153.63 58.7432 153.656C59.1254 153.685 59.6503 153.837 59.9955 154.511C60.0448 154.608 60.1087 154.755 60.1518 154.956C60.1832 155.104 60.2035 155.565 60.2367 155.756C60.3198 156.225 60.3894 156.694 60.4546 157.165C60.6718 158.734 60.7968 160.067 61.4829 161.509C62.414 163.466 63.3469 164.663 64.6122 165.194C65.8355 165.707 67.2983 165.61 69.1672 165.208C69.3451 165.163 69.521 165.124 69.6952 165.092C70.5192 164.941 71.3069 165.51 71.4687 166.374C71.6306 167.237 71.1069 168.078 70.2903 168.268C70.1198 168.308 69.9518 168.345 69.7857 168.38C67.2601 169.038 64.3364 171.386 62.6374 173.442C62.1137 174.076 61.3469 175.849 60.5647 176.979C59.9875 177.814 59.3389 178.363 58.7943 178.558C58.4294 178.689 58.1217 178.668 57.8675 178.602C57.4983 178.507 57.1918 178.296 56.9568 177.961C56.8288 177.778 56.71 177.532 56.6534 177.219C56.6263 177.068 56.6232 176.685 56.6238 176.511C56.4644 175.934 56.2694 175.371 56.1272 174.788C55.7881 173.399 55.1229 172.52 54.3327 171.358C53.5937 170.271 52.7998 169.587 51.6361 169.042C51.4848 169.003 50.2632 168.688 49.8318 168.508C49.2017 168.243 48.9014 167.799 48.7924 167.56C48.6072 167.155 48.5881 166.801 48.6251 166.505C48.6798 166.069 48.8657 165.696 49.1955 165.395C49.3998 165.208 49.7051 165.026 50.1137 164.937C50.4294 164.868 51.2669 164.828 51.3844 164.822ZM58.5506 162.558C58.6072 162.691 58.6675 162.824 58.7315 162.959C60.0952 165.825 61.6201 167.426 63.4737 168.202L63.5358 168.227C62.2958 169.196 61.1733 170.279 60.3155 171.317C59.9623 171.745 59.4946 172.633 58.9894 173.543C58.5303 171.973 57.7795 170.863 56.8355 169.473C56.1143 168.413 55.3586 167.615 54.43 166.965C55.1506 166.576 55.838 166.12 56.4367 165.588C57.4337 164.701 58.0927 163.674 58.5506 162.558Z" fill="var(--fill-0, #417BA4)"/>
</g>
</svg>
