<svg preserveAspectRatio="none" width="100%" height="100%" overflow="visible" style="display: block;" viewBox="0 0 96.219 66.3889" fill="none" xmlns="http://www.w3.org/2000/svg">
<g id="Cloud">
<g id="Cloud_2" filter="url(#filter0_d_0_184)">
<path d="M72.1498 9H12.0692C9.26958 9 7 11.3885 7 14.3349V44.054C7 47.0004 9.26958 49.3889 12.0692 49.3889H72.1498C74.9495 49.3889 77.219 47.0004 77.219 44.054V14.3349C77.219 11.3885 74.9495 9 72.1498 9Z" fill="var(--fill-0, white)"/>
</g>
<g id="Circle">
<path id="Vector" d="M22 35.576C25.3137 35.576 28 32.8898 28 29.576C28 26.2623 25.3137 23.576 22 23.576C18.6863 23.576 16 26.2623 16 29.576C16 32.8898 18.6863 35.576 22 35.576Z" fill="var(--fill-0, #CCC6D9)"/>
<rect id="Rectangle 10" x="36" y="23.576" width="32" height="12" rx="6" fill="var(--fill-0, #D5D5D5)"/>
</g>
</g>
<defs>
<filter id="filter0_d_0_184" x="0" y="0" width="96.219" height="66.3889" filterUnits="userSpaceOnUse" color-interpolation-filters="sRGB">
<feFlood flood-opacity="0" result="BackgroundImageFix"/>
<feColorMatrix in="SourceAlpha" type="matrix" values="0 0 0 0 0 0 0 0 0 0 0 0 0 0 0 0 0 0 127 0" result="hardAlpha"/>
<feOffset dx="6" dy="4"/>
<feGaussianBlur stdDeviation="6.5"/>
<feComposite in2="hardAlpha" operator="out"/>
<feColorMatrix type="matrix" values="0 0 0 0 0.104618 0 0 0 0 0.465612 0 0 0 0 0.545833 0 0 0 0.09 0"/>
<feBlend mode="normal" in2="BackgroundImageFix" result="effect1_dropShadow_0_184"/>
<feBlend mode="normal" in="SourceGraphic" in2="effect1_dropShadow_0_184" result="shape"/>
</filter>
</defs>
</svg>
